<svg xmlns="http://www.w3.org/2000/svg" viewBox="0 0 1849 770">
  <!-- Saber HQ favicon: italic Geist Mono S + struck // (sh — the initials and the shell) -->
  <g transform="translate(0,740) scale(1,-1)">
    <path fill="#D55E00" transform="translate(30,0) skewX(14)" d="M307 -16Q229 -16 171.5 15.0Q114 46 81.0 102.5Q48 159 42 236L168 243Q174 194 193.0 161.5Q212 129 242.5 112.5Q273 96 313 96Q351 96 377.5 106.0Q404 116 418.0 136.0Q432 156 432 185Q432 214 418.0 235.5Q404 257 368.0 275.0Q332 293 265 312Q193 331 147.0 356.5Q101 382 79.0 420.0Q57 458 57 515Q57 579 85.5 626.5Q114 674 168.5 700.0Q223 726 299 726Q374 726 427.0 697.5Q480 669 510.5 616.5Q541 564 548 492L422 486Q417 525 401.0 553.5Q385 582 358.5 598.0Q332 614 294 614Q243 614 213.0 589.0Q183 564 183 522Q183 494 196.5 475.0Q210 456 243.0 441.0Q276 426 336 410Q418 387 466.5 357.0Q515 327 536.5 285.5Q558 244 558 187Q558 126 527.0 80.0Q496 34 440.0 9.0Q384 -16 307 -16Z"/>
    <path fill="#D55E00" transform="translate(787,0)" d="M94 -110 394 750H506L206 -110Z"/>
    <path fill="#D55E00" transform="translate(1159,0)" d="M94 -110 394 750H506L206 -110Z"/>
    <rect fill="#D55E00" x="841" y="308" width="864" height="95"/>
  </g>
</svg>
